<mxfile host="app.diagrams.net" modified="2023-02-07T14:59:00.254Z" agent="5.0 (Windows NT 10.0; Win64; x64) AppleWebKit/537.36 (KHTML, like Gecko) Chrome/109.0.0.0 Safari/537.36 Edg/109.0.1518.78" etag="gtRL2cTRW-tztWwBAOM4" version="20.8.18" type="github">
  <diagram name="Page-1" id="dX0OGecI_YKMpVPkJnJe">
    <mxGraphModel dx="747" dy="1639" grid="1" gridSize="10" guides="1" tooltips="1" connect="1" arrows="1" fold="1" page="1" pageScale="1" pageWidth="827" pageHeight="1169" math="0" shadow="0">
      <root>
        <mxCell id="0" />
        <mxCell id="1" parent="0" />
        <mxCell id="PoNnkDLvYx2G8FSyIKrF-4" style="edgeStyle=orthogonalEdgeStyle;rounded=0;orthogonalLoop=1;jettySize=auto;html=1;exitX=0.5;exitY=0.5;exitDx=0;exitDy=0;exitPerimeter=0;entryX=0;entryY=0.5;entryDx=0;entryDy=0;" edge="1" parent="1" source="PoNnkDLvYx2G8FSyIKrF-1" target="PoNnkDLvYx2G8FSyIKrF-3">
          <mxGeometry relative="1" as="geometry" />
        </mxCell>
        <mxCell id="PoNnkDLvYx2G8FSyIKrF-14" style="edgeStyle=orthogonalEdgeStyle;rounded=0;orthogonalLoop=1;jettySize=auto;html=1;exitX=1;exitY=1;exitDx=0;exitDy=0;exitPerimeter=0;entryX=0;entryY=0.25;entryDx=0;entryDy=0;" edge="1" parent="1" source="PoNnkDLvYx2G8FSyIKrF-1" target="PoNnkDLvYx2G8FSyIKrF-6">
          <mxGeometry relative="1" as="geometry" />
        </mxCell>
        <mxCell id="PoNnkDLvYx2G8FSyIKrF-15" style="edgeStyle=orthogonalEdgeStyle;rounded=0;orthogonalLoop=1;jettySize=auto;html=1;exitX=0.5;exitY=0;exitDx=0;exitDy=0;exitPerimeter=0;entryX=-0.008;entryY=0.4;entryDx=0;entryDy=0;entryPerimeter=0;" edge="1" parent="1" source="PoNnkDLvYx2G8FSyIKrF-1" target="PoNnkDLvYx2G8FSyIKrF-8">
          <mxGeometry relative="1" as="geometry" />
        </mxCell>
        <mxCell id="PoNnkDLvYx2G8FSyIKrF-16" style="edgeStyle=orthogonalEdgeStyle;rounded=0;orthogonalLoop=1;jettySize=auto;html=1;exitX=0.25;exitY=0.1;exitDx=0;exitDy=0;exitPerimeter=0;entryX=0;entryY=0.25;entryDx=0;entryDy=0;" edge="1" parent="1" source="PoNnkDLvYx2G8FSyIKrF-1" target="PoNnkDLvYx2G8FSyIKrF-10">
          <mxGeometry relative="1" as="geometry" />
        </mxCell>
        <mxCell id="PoNnkDLvYx2G8FSyIKrF-1" value="Actor" style="shape=umlActor;verticalLabelPosition=bottom;verticalAlign=top;html=1;outlineConnect=0;" vertex="1" parent="1">
          <mxGeometry x="90" y="140" width="30" height="70" as="geometry" />
        </mxCell>
        <mxCell id="PoNnkDLvYx2G8FSyIKrF-3" value="Turn Wheel&amp;nbsp;&lt;br&gt;Beep Horn&amp;nbsp;&lt;br&gt;Change radio Volume&amp;nbsp;" style="rounded=0;whiteSpace=wrap;html=1;align=left;" vertex="1" parent="1">
          <mxGeometry x="200" y="130" width="120" height="90" as="geometry" />
        </mxCell>
        <mxCell id="PoNnkDLvYx2G8FSyIKrF-5" value="Steering Wheel" style="text;html=1;strokeColor=none;fillColor=none;align=center;verticalAlign=middle;whiteSpace=wrap;rounded=0;" vertex="1" parent="1">
          <mxGeometry x="215" y="100" width="90" height="30" as="geometry" />
        </mxCell>
        <mxCell id="PoNnkDLvYx2G8FSyIKrF-6" value="Open Door&lt;br&gt;Close Door&lt;br&gt;" style="rounded=0;whiteSpace=wrap;html=1;align=left;" vertex="1" parent="1">
          <mxGeometry x="190" y="280" width="120" height="90" as="geometry" />
        </mxCell>
        <mxCell id="PoNnkDLvYx2G8FSyIKrF-7" value="Car Door&amp;nbsp;" style="text;html=1;strokeColor=none;fillColor=none;align=center;verticalAlign=middle;whiteSpace=wrap;rounded=0;" vertex="1" parent="1">
          <mxGeometry x="205" y="250" width="90" height="30" as="geometry" />
        </mxCell>
        <mxCell id="PoNnkDLvYx2G8FSyIKrF-8" value="Set intermittent&amp;nbsp;&lt;br&gt;fast intermittent&amp;nbsp;&lt;br&gt;constant&amp;nbsp;&lt;br&gt;fast constant&amp;nbsp;&lt;br&gt;" style="rounded=0;whiteSpace=wrap;html=1;align=left;" vertex="1" parent="1">
          <mxGeometry x="330" y="20" width="120" height="90" as="geometry" />
        </mxCell>
        <mxCell id="PoNnkDLvYx2G8FSyIKrF-9" value="Window Wipers&amp;nbsp;" style="text;html=1;strokeColor=none;fillColor=none;align=center;verticalAlign=middle;whiteSpace=wrap;rounded=0;" vertex="1" parent="1">
          <mxGeometry x="345" y="-10" width="90" height="30" as="geometry" />
        </mxCell>
        <mxCell id="PoNnkDLvYx2G8FSyIKrF-10" value="Ignition on&amp;nbsp;&lt;br&gt;Engine on&amp;nbsp;&lt;br&gt;Engine off&amp;nbsp;" style="rounded=0;whiteSpace=wrap;html=1;align=left;" vertex="1" parent="1">
          <mxGeometry x="190" y="-80" width="120" height="90" as="geometry" />
        </mxCell>
        <mxCell id="PoNnkDLvYx2G8FSyIKrF-11" value="Engine&amp;nbsp;" style="text;html=1;strokeColor=none;fillColor=none;align=center;verticalAlign=middle;whiteSpace=wrap;rounded=0;" vertex="1" parent="1">
          <mxGeometry x="415" y="140" width="90" height="30" as="geometry" />
        </mxCell>
      </root>
    </mxGraphModel>
  </diagram>
</mxfile>
